<svg viewBox="0 0 302 95" fill="none" xmlns="http://www.w3.org/2000/svg" style="height: 2rem;"><path d="M15.4018 31.8867C15.4018 41.6592 11.0788 44.4776 5.25339 44.4776C3.37405 44.4776 2.55909 44.2903 1.49471 44.1029V41.0328C2.37174 41.2213 3.93727 41.3466 5.37868 41.3466C11.2673 41.3466 12.019 36.7729 12.019 31.8246V0.00110885H15.4018V31.8867Z" fill="white"></path><path d="M43.217 0.000866532V26.5622C43.217 38.2141 49.7953 41.2211 55.9965 41.2211C63.3254 41.2211 68.776 38.1509 68.776 26.5622V0.000866532H72.2209V26.3737C72.2209 40.0934 64.9541 44.3533 55.8712 44.3533C47.2263 44.3533 39.7089 39.6543 39.7089 26.9381V0.000866532H43.217Z" fill="white"></path><path d="M97.03 0.000839746H112.691C120.71 0.000839746 126.222 4.44802 126.222 12.216C126.222 20.1092 120.772 24.7449 112.253 24.7449H100.475V43.8521H97.03V0.000839746ZM100.475 21.6138H112.566C119.644 21.6138 122.589 17.854 122.589 12.3424C122.589 6.45265 118.705 3.13307 112.816 3.13307H100.475V21.6138Z" fill="white"></path><path d="M151.032 43.8513H147.649V0H151.032V43.8513Z" fill="white"></path><path d="M185.237 3.13285H170.514V0.000615293H203.466V3.13285H188.681V43.8519H185.237V3.13285Z" fill="white"></path><path d="M248.258 22.302H225.895V40.7195H250.388L249.887 43.8517H222.512V0.000482408H249.386V3.13271H225.895V19.1697H248.258V22.302Z" fill="white"></path><path d="M275.009 23.367V43.8512H271.564V0.00115353H287.288C295.933 0.00115353 300.505 4.63686 300.505 11.5266C300.505 17.1026 297.186 20.7359 292.299 21.8015C296.81 22.8659 299.817 25.8096 299.817 33.2649V34.9557C299.817 38.0259 299.566 42.1604 300.381 43.8512H296.935C296.12 41.9731 296.309 38.4638 296.309 34.7063V33.5775C296.309 26.374 294.179 23.367 285.784 23.367H275.009ZM275.009 20.2348H285.597C293.302 20.2348 296.873 17.3531 296.873 11.5898C296.873 6.20239 293.364 3.13221 286.536 3.13221H275.009V20.2348Z" fill="white"></path><path fill-rule="evenodd" clip-rule="evenodd" d="M302 94.0525H0V56.5149H302V94.0525ZM24.7224 64.674H15.3644V85.2788H25.0245C29.5853 85.2788 32.289 82.5225 32.289 79.0858C32.289 76.4477 30.5419 74.9817 29.1474 74.4419C30.5267 73.7803 31.7199 72.2757 31.7199 69.9806C31.7199 67.3179 29.8288 64.674 24.7224 64.674ZM43.3901 85.2779V77.2512H45.972C49.1463 77.2512 49.6475 78.2641 49.6475 80.3272V80.6246C49.6475 82.8576 49.7365 84.381 50.0948 85.2779H54.7996C54.535 84.3002 54.5033 82.7581 54.5033 81.3904V80.3624C54.5033 76.6728 52.9647 75.6166 52.0502 75.2477C53.4331 74.6236 54.9483 73.1576 54.9483 70.3661C54.9483 67.1988 52.5034 64.6743 47.9204 64.6743H38.5389V85.2779H43.3901ZM70.7427 85.5868C77.5142 85.5868 81.0176 80.6794 81.0176 74.9208C81.0176 68.5919 77.1653 64.3649 71.0413 64.3649C64.5532 64.3649 60.7641 68.9678 60.7641 74.977C60.7641 80.8703 64.1445 85.5868 70.7427 85.5868ZM90.1431 85.2784L91.5822 80.8909H98.8549L100.381 85.2784H105.599L98.4286 64.6736H92.1407L85.2639 85.2784H90.1431ZM119.438 64.674H111.031V85.2788H119.241C125.658 85.2788 129.452 80.6958 129.452 74.7112C129.452 68.6481 125.542 64.674 119.438 64.674ZM144.965 85.5868C150.278 85.5868 153.262 82.7414 154.066 78.7778H149.063C148.769 79.8106 147.976 81.7637 145.176 81.7637C141.439 81.7637 140.361 78.2614 140.361 74.9161C140.361 71.2687 141.646 68.188 145.062 68.188C147.709 68.188 148.711 69.7254 149.061 71.168H154.033C153.561 67.7114 150.885 64.3649 145.211 64.3649C138.436 64.3649 135.23 69.4209 135.23 75.0988C135.23 80.9815 138.333 85.5868 144.965 85.5868ZM163.115 85.2784L164.553 80.8909H171.825L173.351 85.2784H178.57L171.399 64.6736H165.111L158.234 85.2784H163.115ZM191.964 81.915C189.748 81.915 188.33 81.1129 187.891 79.1551H182.905C183.41 83.0555 186.3 85.5871 191.588 85.5871C197.182 85.5871 200.121 82.9993 200.121 79.1352C200.121 76.174 198.756 73.9504 192.702 72.5242C189.447 71.7724 188.645 71.2443 188.645 69.9481C188.645 68.625 189.645 67.9798 191.264 67.9798C193.795 67.9798 194.391 69.3041 194.568 70.4399H199.549C199.25 67.337 197.011 64.3651 191.373 64.3651C186.349 64.3651 183.589 66.8405 183.589 70.5277C183.589 73.2841 184.895 75.4211 190.707 76.7817C194.077 77.5603 195.058 78.1774 195.058 79.7394C195.058 81.1258 194.111 81.915 191.964 81.915ZM204.392 68.682H210.532V85.2787H215.509V68.682H221.616V64.6739H204.392V68.682ZM227.298 85.2787H232.275V64.6739H227.298V85.2787ZM239.993 64.6737V85.2785H244.514V79.5936C244.514 75.9146 244.458 71.5552 244.305 69.8515H244.366C245.284 72.1718 249.715 80.5704 251.905 84.7209L251.906 84.722L252.199 85.2785H257.987V64.6737H253.498V70.2004C253.498 73.5739 253.502 77.226 253.74 79.274H253.676C252.955 77.4371 250.052 72.0456 247.669 67.6211C247.099 66.5626 246.559 65.5595 246.086 64.6737H239.993ZM280.421 85.2785H284.008V73.6383H274.959V77.6195H279.135V77.7939C279.135 79.2517 278.542 81.7634 274.979 81.7634C271.092 81.7634 269.864 78.404 269.864 75.0329C269.864 71.6313 270.89 68.1888 274.924 68.1888C277.806 68.1888 278.744 69.7813 279.099 70.9417H284.068C283.599 67.4991 280.484 64.3657 274.979 64.3657C268.388 64.3657 264.731 69.0307 264.731 75.2425C264.731 81.0971 268.095 85.6438 274.12 85.6438C276.805 85.6438 278.866 84.9741 280.059 83.4191C280.119 83.9261 280.241 84.6029 280.421 85.2785Z" fill="white"></path><path fill-rule="evenodd" clip-rule="evenodd" d="M24.1604 72.6925C26.0503 72.6925 26.8441 71.7979 26.8441 70.5017C26.8441 69.0802 25.7552 68.4245 24.2096 68.4245H20.2413V72.6925H24.1604ZM20.2413 81.5295H23.9426C26.2692 81.5295 27.1884 80.581 27.1884 78.8973C27.1884 77.395 26.22 76.4418 24.0339 76.4418H20.2413V81.5295ZM43.3901 73.3778H46.8736C49.1218 73.3778 49.9484 72.5125 49.9484 70.9469C49.9484 69.4083 48.9449 68.5465 46.9298 68.5465H43.3901V73.3778ZM70.923 81.6197C67.4992 81.6197 65.8939 78.7966 65.8939 74.888C65.8939 70.9736 67.3892 68.3343 70.834 68.3343C74.4616 68.3343 75.8901 71.2078 75.8901 74.9793C75.8901 78.4839 74.629 81.6197 70.923 81.6197ZM97.8326 76.8828C96.5247 72.8701 95.6371 70.102 95.1325 68.177H95.0973C94.6086 70.2133 93.6893 73.2235 92.6782 76.5338L92.5716 76.8828H97.8326ZM119.037 81.3351H116.007V68.6177H119.071C122.822 68.6177 124.322 71.4841 124.322 74.7112C124.322 78.5741 122.732 81.3351 119.037 81.3351ZM168.103 68.177C168.607 70.102 169.495 72.8701 170.803 76.8828H165.542L165.649 76.5332L165.649 76.5315C166.66 73.2221 167.579 70.2128 168.068 68.177H168.103Z" fill="white"></path></svg>