<?xml version="1.0" encoding="UTF-8" standalone="no"?>
<svg
   width="175in"
   height="175in"
   viewBox="0 0 12599.994 12600.026"
   version="1.1"
   id="svg3"
   xmlns="http://www.w3.org/2000/svg"
   xmlns:svg="http://www.w3.org/2000/svg">
  <defs
     id="defs7" />
  <g
     id="layer2">
    <path
       id="Rocket"
       d="m 6298.997,393.01291 c 0,0 2,0 2,0 0,0 7.69,16 7.69,16 0,0 27,58 27,58 0,0 61.45,137 61.45,137 73.33,165.99 142.28,334.11 208.66,502.99999 79.42,202.09 154.36,405.89 225.54,611 35.04,100.96 69.78,202.2 102.32,304 0,0 74.32,235 74.32,235 0,0 51.74,172 51.74,172 0,0 69.7,243 69.7,243 35.74,128.52 69.98,257.49 101.95,387 0,0 61.98,258 61.98,258 45.59,198.66 86.91,398.41 123.07,599 34.92,193.65 65.62,387.92 91.3,583 12.78,97.11 24.37,194.58 34.11,292 0,0 11.34,119 11.34,119 0,0 16.92,210 16.92,210 0,0 3.82,51 3.82,51 0,0 1.18,25 1.18,25 0,0 1.91,29 1.91,29 0,0 1,15 1,15 0,0 1,16 1,16 0,0 1,24 1,24 0,0 1,18 1,18 0,0 1,17 1,17 0,0 1,18 1,18 0,0 1,30 1,30 0,0 1.04,13 1.04,13 0,0 0,14 0,14 0,0 1,12 1,12 0,0 0,13 0,13 0,0 1,12 1,12 0,0 0,15 0,15 0,0 0.96,11 0.96,11 0,0 0,16 0,16 0,0 1,13 1,13 0,0 0,18 0,18 0,0 1,17 1,17 0,0 0,22 0,22 0,0 1,16 1,16 0,0 0,29 0,29 0,0 1,17 1,17 0,0 0,50 0,50 0,0 1,17 1,17 0,0 0,143 0,143 0,0 0,80 0,80 0,0 -1,15 -1,15 0,0 0,85 0,85 0,0 -1,15 -1,15 0,0 0,53 0,53 0,0 -1,17 -1,17 0,0 0,41 0,41 0,0 -1,15 -1,15 0,0 0,32 0,32 0,0 -1,17 -1,17 0,0 0,27 0,27 0,0 -1,16 -1,16 0,0 0,24 0,24 0,0 -1,15 -1,15 0,0 0,22 0,22 0,0 -1,17 -1,17 0,0 0,18 0,18 0,0 -1,16 -1,16 0,0 -1,47 -1,47 0,0 -0.96,12 -0.96,12 0,0 0,16 0,16 0,0 -1.04,15 -1.04,15 0,0 0,15 0,15 0,0 -1.04,16 -1.04,16 0,0 0,15 0,15 0,0 -1,12 -1,12 0,0 0,13 0,13 0,0 -0.96,12 -0.96,12 0,0 -1,33 -1,33 0,0 -1,17 -1,17 0,0 -1,23 -1,23 0,0 -1,30 -1,30 0,0 -1,13 -1,13 0,0 -1,30 -1,30 0,0 -1,13 -1,13 0,0 -1,27 -1,27 0,0 -1,18 -1,18 0,0 -1,17 -1,17 0,0 -1,17 -1,17 0,0 -1,25 -1,25 0,0 -1,10 -1,10 0,0 0,11 0,11 0,0 -1,13 -1,13 0,0 -1,16 -1,16 0,0 -2,37 -2,37 0,0 -2,31 -2,31 0,0 -1.91,29 -1.91,29 0,0 -2.18,41 -2.18,41 0,0 -6.82,95 -6.82,95 -9.55,139.74 -20.75,279.5 -34.26,419 0,0 -17,169 -17,169 0,0 -6,56 -6,56 -0.66,6.64 -3.05,19 -1.83,25 0,0 12.74,-26 12.74,-26 0,0 25.01,-48 25.01,-48 0,0 93.99,-180 93.99,-180 0,0 84,-161 84,-161 0,0 95.48,-183 95.48,-183 0,0 60.52,-116 60.52,-116 0,0 30.26,-58 30.26,-58 5.9,3.04 15.23,16.29 19.8,22 0,0 39.2,49 39.2,49 48.65,61.35 95.28,124.24 140.71,188 181.47,254.7 334.74,530.7 455.71,819 117.55,280.11 207.21,578.37 263.19,877 21.73,115.93 41,232.7 53.55,350 0,0 11.67,108 11.67,108 0,0 10.26,129 10.26,129 0,0 2,30 2,30 0,0 0.91,11 0.91,11 0,0 1,16 1,16 0,0 2,41 2,41 0,0 1,15 1,15 0,0 1,20 1,20 0,0 1,31 1,31 0,0 1.04,17 1.04,17 0,0 0,16 0,16 0,0 0.96,11 0.96,11 0,0 0,19 0,19 0,0 1,17 1,17 0,0 0,27 0,27 0,0 1,17 1,17 0,0 0,202 0,202 0,0 -1,15 -1,15 0,0 0,29.0001 0,29.0001 0,0 -1,15 -1,15 0,0 0,19 0,19 0,0 -1,16 -1,16 0,0 -1,40 -1,40 0,0 -1,23 -1,23 0,0 -0.96,12 -0.96,12 0,0 0,12 0,12 0,0 -1.04,13 -1.04,13 0,0 -1,22 -1,22 0,0 -1,21 -1,21 0,0 -0.98,11 -0.98,11 0,0 0,10 0,10 0,0 -0.93,8 -0.93,8 0,0 -2.18,41 -2.18,41 0,0 -1.82,21 -1.82,21 -4.59,67.1 -10.23,134.03 -16.92,201 -8.69,86.85 -19.06,173.42 -30.45,260 0,0 -17.45,120 -17.45,120 0,0 -26.69,165 -26.69,165 -13.96,77.42 -27.64,154.95 -43.58,232 -37.2,179.75 -78.22,358.45 -124.88,536 0,0 -71.54,259 -71.54,259 0,0 -24,82 -24,82 0,0 -11.58,40 -11.58,40 0,0 -2,0 -2,0 0,0 -1.83,-19 -1.83,-19 0,0 -5,-49 -5,-49 0,0 -11.89,-105 -11.89,-105 -9.07,-73.53 -19.34,-146.78 -30.7,-220 0,0 -23.16,-133 -23.16,-133 0,0 -31,-152 -31,-152 0,0 -31.54,-132 -31.54,-132 0,0 -37.3,-136 -37.3,-136 -30.49,-104.37 -67.12,-209.48 -108.59,-310 -90.91,-220.36 -205.52,-423.8 -357.74,-608 -28.05,-33.95 -57.34,-66.8 -87.34,-99 0,0 -15.87,-16 -15.87,-16 0,0 -36.04,-36.96 -36.04,-36.96 0,0 -9,-8.08 -9,-8.08 0,0 -43,-40.79 -43,-40.79 -76.37,-69.07 -157.77,-132.21 -244,-188.5101 0,0 -85,-52.67 -85,-52.67 0,0 -52,-28.99 -52,-28.99 0,0 -4.28,31 -4.28,31 0,0 -9.99,73 -9.99,73 0,0 -36.81,245.0001 -36.81,245.0001 -39.48,238.9 -84.44,471.63 -146.04,706 -38.91,148.05 -87.54,303.54 -145.89,445 -16.31,39.54 -33.95,78.34 -52.21,117 -53.24,112.69 -119.14,220.37 -202.95,313 0,0 -13.79,14 -13.79,14 -65.88,68.87 -147.42,125.5 -239.04,153.98 -36.9,11.46 -74.49,18.46 -113,21.11 0,0 -10,0.95 -10,0.95 0,0 -13,0 -13,0 0,0 -12,0.96 -12,0.96 0,0 -10,0 -10,0 0,0 -10,-0.96 -10,-0.96 0,0 -13,0 -13,0 0,0 -10,-0.95 -10,-0.95 -31.77,-2.18 -63.26,-7.12 -94,-15.67 -26.36,-7.32 -52.11,-16.3 -77,-27.73 -145.08,-66.62 -249.7,-196.49 -329.8,-330.69 -19.42,-32.54 -37.51,-66.12 -54.45,-100 -90.57,-181.15 -160.13,-394.03 -211.63,-590 -44.43,-169.04 -81.52,-339.99 -112.54,-512 0,0 -34.16,-198 -34.16,-198 0,0 -34.15,-227.0001 -34.15,-227.0001 0,0 -9.99,-72 -9.99,-72 0,0 -6.28,-46 -6.28,-46 0,0 -52,28.99 -52,28.99 0,0 -85,52.67 -85,52.67 -86.23,56.3001 -167.62,119.4301 -244,188.5101 0,0 -43,40.79 -43,40.79 0,0 -9,8.08 -9,8.08 0,0 -36.04,36.96 -36.04,36.96 0,0 -15.87,16 -15.87,16 -30,32.2 -59.29,65.05 -87.34,99 -149.7,181.16 -261.64,378.88 -352.33,595 -47.43,113.03 -86.65,229.4 -121,347 0,0 -30.3,112 -30.3,112 0,0 -31.54,132 -31.54,132 0,0 -31,152 -31,152 -11.53,63.88 -22.85,127.77 -32.31,192 0,0 -22.55,169 -22.55,169 0,0 -11.89,106 -11.89,106 0,0 -4,40 -4,40 0,0 -1.83,19 -1.83,19 0,0 -2,0 -2,0 0,0 -14.86,-51 -14.86,-51 0,0 -34.72,-120 -34.72,-120 0,0 -60.3,-221 -60.3,-221 0,0 -33.24,-130 -33.24,-130 0,0 -49.46,-210 -49.46,-210 -42.77,-192.62 -80.93,-386.76 -109.69,-582 -12.3,-83.49 -24.91,-167.09 -33.89,-251 0,0 -7.67,-66 -7.67,-66 -7.87,-78.65 -15.87,-157.19 -21.26,-236 0,0 -3.82,-49 -3.82,-49 0,0 -1.18,-25 -1.18,-25 0,0 -1.91,-27 -1.91,-27 0,0 -1,-20 -1,-20 0,0 -0.96,-11 -0.96,-11 0,0 0,-10 0,-10 0,0 -1.04,-15 -1.04,-15 0,0 -1,-20 -1,-20 0,0 -1,-30 -1,-30 0,0 -1,-13 -1,-13 0,0 0,-13 0,-13 0,0 -1,-16 -1,-16 0,0 0,-14 0,-14 0,0 -1,-15 -1,-15 0,0 0,-19 0,-19 0,0 -1,-16 -1,-16 0,0 0,-29.0001 0,-29.0001 0,0 -1,-17 -1,-17 0,0 0,-201 0,-201 0,0 1,-15 1,-15 0,0 0,-27 0,-27 0,0 1,-15 1,-15 0,0 0,-20 0,-20 0,0 1,-17 1,-17 0,0 1,-36 1,-36 0,0 1,-22 1,-22 0,0 0.96,-12 0.96,-12 0,0 0,-11 0,-11 0,0 1.04,-13 1.04,-13 0,0 1,-24 1,-24 0,0 1,-10 1,-10 0,0 0,-10 0,-10 0,0 1,-14 1,-14 0,0 0.91,-10 0.91,-10 0,0 2,-30 2,-30 0,0 5.92,-77 5.92,-77 0,0 5.34,-62 5.34,-62 0,0 19.55,-170 19.55,-170 63.24,-480.5 193.18,-932.33 404.54,-1369 0,0 45.48,-90 45.48,-90 92.84,-179.93 198.69,-352.74 315.68,-518 42.8,-60.46 87.44,-119.61 133,-178 0,0 35,-44 35,-44 0,0 27.58,-34 27.58,-34 0,0 2,0 2,0 0,0 17.26,33 17.26,33 0,0 24,46 24,46 0,0 60,115 60,115 0,0 89.48,171 89.48,171 0,0 131.48,252 131.48,252 0,0 60,115 60,115 0,0 20.78,40 20.78,40 0,0 -8.83,-81 -8.83,-81 0,0 -15,-148 -15,-148 -13.74,-141.83 -25.54,-283.92 -35.26,-426 0,0 -7.82,-110 -7.82,-110 0,0 -2.18,-40 -2.18,-40 0,0 -1.91,-29 -1.91,-29 0,0 -1,-14 -1,-14 0,0 -2,-38 -2,-38 0,0 -1,-14 -1,-14 0,0 -2,-39 -2,-39 0,0 -1,-17 -1,-17 0,0 -0.96,-12 -0.96,-12 0,0 0,-9 0,-9 0,0 -1.04,-17 -1.04,-17 0,0 -1.04,-15 -1.04,-15 0,0 0,-10 0,-10 0,0 -0.96,-10 -0.96,-10 0,0 -1,-22 -1,-22 0,0 -1,-21 -1,-21 0,0 -1,-21 -1,-21 0,0 -2,-49 -2,-49 0,0 -1.04,-17 -1.04,-17 0,0 0,-12 0,-12 0,0 -1,-12 -1,-12 0,0 0,-12 0,-12 0,0 -1,-12 -1,-12 0,0 0,-13 0,-13 0,0 -0.96,-12 -0.96,-12 0,0 -1,-38 -1,-38 0,0 -1,-13 -1,-13 0,0 0,-14 0,-14 0,0 -1,-16 -1,-16 0,0 0,-14 0,-14 0,0 -1,-15 -1,-15 0,0 0,-16 0,-16 0,0 -1,-16 -1,-16 0,0 0,-17 0,-17 0,0 -1,-15 -1,-15 0,0 0,-19 0,-19 0,0 -1,-16 -1,-16 0,0 0,-21 0,-21 0,0 -1,-13 -1,-13 0,0 0,-25 0,-25 0,0 -1,-17 -1,-17 0,0 0,-27 0,-27 0,0 -1,-17 -1,-17 0,0 0,-32 0,-32 0,0 -1,-17 -1,-17 0,0 0,-42 0,-42 0,0 -1,-15 -1,-15 0,0 0,-54 0,-54 0,0 -1,-17 -1,-17 0,0 0,-86 0,-86 0,0 -1,-15 -1,-15 0,0 0,-214 0,-214 0,0 1,-17 1,-17 0,0 0,-51 0,-51 0,0 1,-16 1,-16 0,0 0,-31 0,-31 0,0 1,-17 1,-17 0,0 0,-22 0,-22 0,0 1,-16 1,-16 0,0 1,-46 1,-46 0,0 1,-17 1,-17 0,0 1,-37 1,-37 0,0 1.04,-15 1.04,-15 0,0 0,-12 0,-12 0,0 0.96,-12 0.96,-12 0,0 2,-49 2,-49 0,0 0.96,-10 0.96,-10 0,0 0,-9 0,-9 0,0 1.04,-19 1.04,-19 0,0 1,-17 1,-17 0,0 1,-15 1,-15 0,0 2,-37 2,-37 0,0 1,-10 1,-10 0,0 0,-9 0,-9 0,0 1.91,-22 1.91,-22 0,0 2.18,-38 2.18,-38 0,0 3.82,-48 3.82,-48 6.67,-97.49 16.2,-194.71 25.92,-292 15.64,-156.36 35.53,-312.47 58.44,-468 0,0 28.15,-182 28.15,-182 14.02,-90.27 30.94,-180.12 47.16,-270 0,0 43.42,-223 43.42,-223 0,0 27.58,-132 27.58,-132 0,0 56.3,-252 56.3,-252 38.33,-161.6 78.6,-322.67 121.97,-483 153.62,-567.94 339.14,-1127.43 554.35,-1675 66.93,-170.28999 136.73,-339.63999 210.66,-506.99999 0,0 58.45,-130 58.45,-130 0,0 26,-56 26,-56 0,0 7.69,-16 7.69,-16 z m -963.91,8703.99999 c -1.38,3.25 -1.99,18.8 0,21.43 1.32,1.57 3.14,1.43 4.91,1.57 0,0 -4.91,-23 -4.91,-23 z m 1930.91,0 c 0,0 -6,23 -6,23 1.77,-0.14 3.59,0 4.83,-1.57 1.94,-2.47 1.17,-17.53 1.17,-21.43 z" />
  </g>
  <style>@media (prefers-color-scheme: light) {
   #Rocket {
      fill: #2a2a2a;
   }
 }
 @media (prefers-color-scheme: dark) {
  #Rocket {
     fill: #ffffff;
  }
 }
 </style>
</svg>
