<?xml version="1.0" standalone="no"?>
<!DOCTYPE svg PUBLIC "-//W3C//DTD SVG 20010904//EN"
 "http://www.w3.org/TR/2001/REC-SVG-20010904/DTD/svg10.dtd">
<svg version="1.0" xmlns="http://www.w3.org/2000/svg"
 width="512.000000pt" height="512.000000pt" viewBox="0 0 512.000000 512.000000"
 preserveAspectRatio="xMidYMid meet">
<metadata>
Created by potrace 1.14, written by Peter Selinger 2001-2017
</metadata>
<g transform="translate(0.000000,512.000000) scale(0.100000,-0.100000)"
fill="#000000" stroke="none">
<path d="M2539 5078 c-13 -34 -53 -127 -69 -163 -86 -189 -252 -695 -326 -995
-15 -62 -84 -415 -89 -455 -3 -27 -8 -59 -10 -70 -2 -11 -7 -42 -10 -70 -4
-27 -8 -60 -10 -72 -27 -166 -27 -821 0 -1098 1 -16 6 -68 9 -115 l7 -85 -53
100 c-29 56 -66 126 -83 158 -16 31 -33 57 -37 57 -10 0 -106 -133 -160 -223
-122 -202 -200 -415 -242 -660 -49 -279 -38 -649 28 -962 3 -11 12 -54 20 -95
22 -104 78 -311 83 -306 3 2 6 18 9 35 2 17 6 46 9 64 3 17 8 50 11 72 17 117
74 305 127 415 75 157 221 320 345 384 l32 17 1 -28 c0 -16 2 -37 5 -48 2 -11
6 -38 9 -60 5 -33 46 -241 59 -295 45 -184 121 -347 196 -419 109 -104 259
-85 359 46 57 74 128 243 156 370 2 10 13 59 24 110 12 51 23 109 27 130 3 21
7 45 9 53 2 8 7 42 11 75 3 33 8 62 9 63 9 10 127 -80 191 -143 141 -140 238
-333 290 -580 24 -113 36 -194 37 -248 1 -64 25 7 78 232 67 283 93 493 93
741 0 116 -8 252 -19 309 -1 9 -6 39 -9 66 -22 151 -96 379 -177 540 -69 136
-219 359 -232 345 -2 -3 -39 -72 -82 -155 -43 -82 -80 -152 -82 -155 -5 -5 5
157 12 199 26 159 26 931 0 1081 -2 14 -6 48 -9 75 -8 71 -15 121 -27 190 -5
33 -12 70 -14 82 -2 13 -11 58 -19 100 -9 43 -18 87 -20 98 -60 306 -251 899
-390 1210 -12 28 -28 65 -35 83 -8 17 -17 32 -21 32 -4 0 -13 -15 -21 -32z"/>
</g>
</svg>
